<svg xmlns="http://www.w3.org/2000/svg" width="111" height="111" viewBox="0 0 111 111">
    <g fill="#000" fill-rule="nonzero">
        <path d="M87.704 53.187v50.876a2.31 2.31 0 0 1-2.308 2.312H34.62a2.31 2.31 0 0 1-2.308-2.313V78.626h-4.616v25.438c0 3.831 3.1 6.937 6.924 6.937h50.776c3.824 0 6.924-3.106 6.924-6.938V53.188h-4.616z"/>
        <path d="M43.852 62.438H23.08c-8.918.011-16.145 7.252-16.156 16.187h4.616c.007-6.383 5.17-11.555 11.54-11.562h20.772a4.62 4.62 0 0 1 4.616 4.625 4.62 4.62 0 0 1-4.616 4.624H23.08v4.625h20.772c5.098 0 9.232-4.141 9.232-9.25 0-5.108-4.133-9.25-9.232-9.25z"/>
        <path d="M2.308 69.375A2.31 2.31 0 0 0 0 71.688V74h11.54v-4.625H2.308zM23.08 101.75c-6.37-.008-11.532-5.18-11.54-11.563H6.924c.011 8.936 7.238 16.177 16.156 16.188h6.924v-4.625H23.08z"/>
        <path d="M0 94.812v2.313a2.31 2.31 0 0 0 2.308 2.313h9.232v-4.625H0zM87.704 4.625H71.548c-5.099 0-9.232 4.141-9.232 9.25s4.133 9.25 9.232 9.25H92.32V18.5H71.548a4.62 4.62 0 0 1-4.616-4.625 4.62 4.62 0 0 1 4.616-4.625h16.156c6.37.008 11.532 5.18 11.54 11.563h4.616c-.012-8.936-7.238-16.177-16.156-16.188z"/>
        <path d="M108.476 11.562h-9.232v4.625h11.54v-2.312a2.31 2.31 0 0 0-2.308-2.313zM99.244 32.375c-.008 6.383-5.17 11.555-11.54 11.562H71.548v4.626h16.156c8.918-.012 16.144-7.253 16.156-16.188h-4.616z"/>
        <path d="M99.244 37v4.625h9.232a2.31 2.31 0 0 0 2.308-2.313V37h-11.54zM82.042 20.177l-4.44 1.26a23.11 23.11 0 0 1-2.838 18.836c-6.92 10.691-21.18 13.737-31.85 6.803-10.67-6.934-13.709-21.221-6.789-31.912 6.92-10.69 21.18-13.736 31.85-6.802l2.52-3.876A27.656 27.656 0 0 0 55.402 0C40.105-.003 27.703 12.42 27.7 27.745 27.698 43.071 40.096 55.497 55.39 55.5a27.665 27.665 0 0 0 7.522-1.048c14.73-4.172 23.294-19.518 19.13-34.275z"/>
        <path d="M50.776 20.813h9.232v-4.625h-9.232c-3.824 0-6.924 3.106-6.924 6.937 0 3.832 3.1 6.938 6.924 6.938h9.232v-4.625h-9.232a2.31 2.31 0 0 1-2.308-2.313 2.31 2.31 0 0 1 2.308-2.313z"/>
        <path d="M60.008 25.437h-9.232v4.625h9.232a2.31 2.31 0 0 1 2.308 2.313 2.31 2.31 0 0 1-2.308 2.313h-9.232a2.31 2.31 0 0 1-2.308-2.313h-4.616c0 3.831 3.1 6.937 6.924 6.937h9.232c3.824 0 6.924-3.106 6.924-6.937 0-3.832-3.1-6.938-6.924-6.938z"/>
        <path d="M53.084 37H57.7v6.938h-4.616zM53.084 11.562H57.7V18.5h-4.616zM34.62 48.563c-3.824 0-6.924 3.106-6.924 6.937v9.25h4.616V55.5a2.31 2.31 0 0 1 2.308-2.313h9.232v-4.624H34.62z"/>
        <path d="M39.236 50.875h4.616V64.75h-4.616zM55.392 53.187v16.188h-4.616V74H57.7a2.31 2.31 0 0 0 2.308-2.313v-18.5h-4.616zM69.24 97.125h13.848v4.625H69.24zM69.24 87.875h13.848V92.5H69.24z"/>
    </g>
</svg>
