<svg xmlns="http://www.w3.org/2000/svg" width="79" height="112" viewBox="0 0 79 112">
    <g fill="#000" fill-rule="nonzero">
        <path d="M46.99 0H9.54C4.376 0 .176 4.187.176 9.333v67.2c0 5.147 4.2 9.334 9.363 9.334h33.706v-3.734H9.54c-3.098 0-5.618-2.512-5.618-5.6v-67.2c0-3.087 2.52-5.6 5.618-5.6H46.99c3.097 0 5.617 2.513 5.617 5.6v54.134h3.745V9.333c0-5.146-4.2-9.333-9.363-9.333z"/>
        <path d="M74.313 49.72l-18.37-22.885-2.927 2.334 18.37 22.883a16.814 16.814 0 0 1 3.693 10.5v45.715H47.683c-9.673 0-17.546-7.846-17.546-17.491V84h-3.745v6.776c0 11.702 9.552 21.224 21.291 21.224h29.269a1.868 1.868 0 0 0 1.872-1.867V62.554a20.571 20.571 0 0 0-4.51-12.833z"/>
        <path d="M32.002 44.022a4.895 4.895 0 0 1 3.438 1.534l25.166 26.656 2.729-2.56-25.17-26.657a8.625 8.625 0 0 0-6.056-2.705 8.52 8.52 0 0 0-6.18 2.337c-.02.02-.17.162-.189.183-3.2 3.2-3.415 8.22-.496 11.69l16.129 18.983v5.776c-.002 10.315 6.505 19.672 16.196 23.29l1.314-3.496c-8.235-3.075-13.767-11.029-13.765-19.794V72.8c0-.44-.158-.87-.444-1.208l-16.567-19.5c-1.657-1.968-1.535-4.826.375-6.732.955-.9 2.202-1.346 3.52-1.338z"/>
        <path d="M41.373 3.733h3.745V50.4h-3.745zM32.01 61.6h3.745V84H32.01zM32.01 1.867h3.745v41.067H32.01zM9.539 9.333h3.745V33.6H9.539zM18.901 9.333h3.745v14.933h-3.745zM22.647 61.6H11.41a1.869 1.869 0 0 0-1.872 1.867v11.2c0 1.032.839 1.866 1.872 1.866h11.236a1.869 1.869 0 0 0 1.872-1.866v-11.2a1.869 1.869 0 0 0-1.872-1.867zm-1.873 11.2h-7.49v-7.467h7.49V72.8z"/>
    </g>
</svg>
