<svg xmlns="http://www.w3.org/2000/svg" width="87" height="109" viewBox="0 0 87 109">
    <g fill="#000" fill-rule="nonzero">
        <path d="M70.688 45.417H25.374c-1 0-1.813.812-1.813 1.816 0 1.005.813 1.817 1.813 1.817h45.313c1 0 1.812-.812 1.812-1.817a1.814 1.814 0 0 0-1.813-1.816zM25.375 34.517H43.5c1 0 1.813-.812 1.813-1.817a1.814 1.814 0 0 0-1.813-1.817H25.375c-1 0-1.813.812-1.813 1.817s.813 1.817 1.813 1.817zM70.688 59.95H25.374c-1 0-1.813.812-1.813 1.817 0 1.004.813 1.816 1.813 1.816h45.313c1 0 1.812-.812 1.812-1.816a1.814 1.814 0 0 0-1.813-1.817zM70.688 74.483H25.374c-1 0-1.813.812-1.813 1.817s.813 1.817 1.813 1.817h45.313c1 0 1.812-.812 1.812-1.817a1.814 1.814 0 0 0-1.813-1.817zM70.688 89.017H25.374c-1 0-1.813.812-1.813 1.816 0 1.005.813 1.817 1.813 1.817h45.313c1 0 1.812-.812 1.812-1.817a1.814 1.814 0 0 0-1.813-1.816z"/>
        <path d="M77.938 26.498V0H0v99.917h9.063V109H87V35.581l-9.063-9.083zM61.624 15.285l16.313 16.35 2.874 2.882H61.625V15.285zm-58 80.998V3.633h70.688v19.232L60.563 9.083h-51.5v87.2H3.625zm9.063 9.084v-92.65H58V38.15h25.375v67.217H12.687z"/>
    </g>
</svg>
